# AST/ASF file generated using VICON BodyLanguage
# -----------------------------------------------
:version 1.10
:name VICON
:units
  mass 1.0
  length 0.45
  angle deg
:documentation
   .ast/.asf automatically generated from VICON data using
   VICON BodyBuilder and BodyLanguage model FoxedUp or BRILLIANT.MOD
:root
   order TX TY TZ RX RY RZ
   axis XYZ
   position 0 0 0  
   orientation 0 0 0 
:bonedata
  begin
     id 1 
     name lhipjoint
     direction 0.576517 -0.752066 0.319413 
     length 2.45433 
     axis 0 0 0  XYZ
  end
  begin
     id 2 
     name lfemur
     direction 0.34202 -0.939693 0  
     length 7.54459  
     axis 0 0 20  XYZ
    dof rx ry rz
    limits (-160.0 20.0)
           (-70.0 70.0)
           (-60.0 70.0)
  end
  begin
     id 3 
     name ltibia
     direction 0.34202 -0.939693 0   
     length 7.73986   
     axis 0 0 20   XYZ
    dof rx
    limits (-10.0 170.0)
  end
  begin
     id 4 
     name lfoot
     direction 0.090693 -0.249177 0.964202   
     length 2.28437   
     axis -90 7.62852e-016 20   XYZ
    dof rx rz
    limits (-45.0 90.0)
           (-70.0 20.0)
  end
  begin
     id 5 
     name ltoes
     direction 1.5356e-011 -4.21928e-011 1   
     length 1.14243   
     axis -90 7.62852e-016 20   XYZ
    dof rx
    limits (-90.0 20.0)
  end
  begin
     id 6 
     name rhipjoint
     direction -0.573937 -0.753736 0.320122   
     length 2.44889  
     axis 0 0 0  XYZ 
  end
  begin
     id 7 
     name rfemur
     direction -0.34202 -0.939693 0   
     length 7.50166   
     axis 0 0 -20   XYZ
    dof rx ry rz
    limits (-160.0 20.0)
           (-70.0 70.0)
           (-70.0 60.0)
  end
  begin
     id 8 
     name rtibia
     direction -0.34202 -0.939693 0   
     length 7.54266   
     axis 0 0 -20   XYZ
    dof rx
    limits (-10.0 170.0)
 end
 begin
     id 9 
     name rfoot
     direction -0.114017 -0.31326 0.942798   
     length 2.34212  
     axis -90 -7.62852e-016 -20   XYZ
    dof rx rz
    limits (-45.0 90.0)
           (-20.0 70.0)
  end
  begin
     id 10 
     name rtoes
     direction -1.53557e-011 -4.21867e-011 1   
     length 1.16246   
     axis -90 -7.62852e-016 -20   XYZ
    dof rx
    limits (-90.0 20.0)
  end
  begin
     id 11 
     name lowerback
     direction -0.0228371 0.999155 -0.034167   
     length 2.0537   
     axis 0 0 0   XYZ
    dof rx ry rz
    limits (-20.0 45.0)
           (-30.0 30.0)
           (-30.0 30.0)
  end
  begin
     id 12 
     name upperback
     direction 0.0198981 0.999794 0.00389455   
     length 2.05302   
     axis 0 0 0   XYZ
    dof rx ry rz
    limits (-20.0 45.0)
           (-30.0 30.0)
           (-30.0 30.0)
  end
  begin
     id 13 
     name thorax
     direction 0.0304566 0.99935 0.0192987   
     length 2.05315   
     axis 0 0 0   XYZ
    dof rx ry rz
    limits (-20.0 45.0)
           (-30.0 30.0)
           (-30.0 30.0)
  end
  begin
     id 14 
     name lowerneck
     direction -0.0196762 0.99417 0.106017   
     length 1.82056   
     axis 0 0 0   XYZ
    dof rx ry rz
    limits (-20.0 45.0)
           (-30.0 30.0)
           (-30.0 30.0)
  end
  begin
     id 15 
     name upperneck
     direction 0.00517787 0.9802 -0.197944   
     length 1.83835   
     axis 0 0 0   XYZ
    dof rx ry rz
    limits (-20.0 45.0)
           (-30.0 30.0)
           (-30.0 30.0)
  end
  begin
     id 16
     name head
     direction 0.00211419 0.996945 -0.078081  
     length 1.85629  
     axis 0 0 0   XYZ
    dof rx ry rz
    limits (-20.0 45.0)
           (-30.0 30.0)
           (-30.0 30.0)
  end
  begin
     id 17 
     name lclavicle
     direction 0.930001 0.365811 -0.0357824  
     length 3.81961  
     axis 0 0 0   XYZ
    dof ry rz
    limits (-20.0 10.0)
           (0.0 20.0)
  end
  begin
     id 18 
     name lhumerus
     direction 1 -4.48968e-011 -3.06644e-027   
     length 5.14507   
     axis 180 -30 -90   XYZ
    dof rx ry rz
    limits (-60.0 90.0)
           (-90.0 90.0)
           (-90.0 90.0)
  end
  begin
     id 19
     name lradius
     direction 1 -4.48965e-011 9.06925e-028   
     length 3.50646   
     axis 180 -30 -90   XYZ
    dof rx
    limits (-10.0 170.0)
  end
  begin
     id 20
     name lwrist
     direction 1 -4.48957e-011 1.03922e-027   
     length 1.75323   
     axis -2.56395e-016 90 90   XYZ
    dof ry
    limits (-180.0 0.0)
 end
  begin
     id 21 
     name lhand
     direction 1 -4.48967e-011 2.08017e-027   
     length 0.629969   
     axis -1.32723e-015 90 90   XYZ
    dof rx rz
    limits (-90.0 90.0)
           (-45.0 45.0)
  end
  begin
     id 22 
     name lfingers
     direction 1 -4.49089e-011 4.20095e-027   
     length 0.507897   
     axis -2.6545e-015 90 90   XYZ
    dof rx
    limits (0.0 90.0)
  end
  begin
     id 23
     name lthumb
     direction 0.707107 -6.35001e-011 0.707107   
     length 0.729241   
     axis -90 45 5.05613e-014   XYZ
    dof rx rz
    limits (-45.0 45.0)
           (-45.0 45.0)
  end
  begin
     id 24 
     name rclavicle
     direction -0.881882 0.464123 -0.0829113   
     length 3.47515  
     axis 0 0 0   XYZ 
    dof ry rz
    limits (-10.0 20.0)
           (-20.0 0.0)
  end
  begin
     id 25 
     name rhumerus
     direction -1 -4.48961e-011 -1.55672e-027  
     length 5.232   
     axis 180 30 90   XYZ
    dof rx ry rz
    limits (-90.0 60.0)
           (-90.0 90.0)
           (-90.0 90.0)
  end
  begin
     id 26 
     name rradius
     direction -1 -4.48963e-011 6.18178e-029   
     length 3.65641   
     axis 180 30 90   XYZ
    dof rx
    limits (-10.0 170.0)
  end
  begin
     id 27 
     name rwrist
     direction -1 -4.48982e-011 1.04136e-027   
     length 1.8282   
     axis -2.56395e-016 -90 -90   XYZ
    dof ry
    limits (-180.0 0.0)
  end
  begin
     id 28
     name rhand
     direction -1 -4.48929e-011 2.07378e-027   
     length 0.656807   
     axis -1.32723e-015 -90 -90   XYZ
    dof rx rz
    limits (-90.0 90.0)
           (-45.0 45.0)
  end
  begin
     id 29
     name rfingers
     direction -1 -4.489e-011 4.13816e-027   
     length 0.529535   
     axis -2.6545e-015 -90 -90   XYZ
    dof rx
    limits (0.0 90.0)
  end
  begin
     id 30
     name rthumb
     direction -0.707107 -6.34843e-011 0.707107   
     length 0.760309   
     axis -90 -45 -5.05613e-014   XYZ
    dof rx rz
    limits (-45.0 45.0)
           (-45.0 45.0)
  end
:hierarchy
  begin
    root lhipjoint rhipjoint lowerback
    lhipjoint lfemur
    lfemur ltibia
    ltibia lfoot
    lfoot ltoes
    rhipjoint rfemur
    rfemur rtibia
    rtibia rfoot
    rfoot rtoes
    lowerback upperback
    upperback thorax
    thorax lowerneck lclavicle rclavicle
    lowerneck upperneck
    upperneck head
    lclavicle lhumerus
    lhumerus lradius
    lradius lwrist
    lwrist lhand lthumb
    lhand lfingers
    rclavicle rhumerus
    rhumerus rradius
    rradius rwrist
    rwrist rhand rthumb
    rhand rfingers
  end

#!OML:ASF H:\ManfredETheater\Project 1\Capture day 1\Session 1\subject.ASF
:FULLY-SPECIFIED
:DEGREES
33
root -1.3822 15.7154 -43.8467 23.17 -7.41082 -7.17031
lowerback 12.5445 1.33306 7.40777
upperback -3.89524 3.14694 0.893446
thorax -10.9964 1.02464 -3.88042
lowerneck -20.8946 -1.0649 -0.752582
upperneck 6.85466 -1.15246 -0.559247
head 5.40446 -0.630678 -0.178905
rclavicle 8.72478e-015 1.2424e-017
rhumerus -46.3909 14.0823 -95.8651
rradius 81.8994
rwrist 2.06464
rhand -17.6243 -8.56858
rfingers 7.12502
rthumb 8.63295 -38.3721
lclavicle 8.72478e-015 1.2424e-017
lhumerus -53.6558 -8.15992 88.7428
lradius 69.886
lwrist 4.21613
lhand -26.3089 -8.50846
lfingers 7.12502
lthumb 0.247419 21.4711
rfemur -1.77846 -3.20194 24.464
rtibia 50.3653
rfoot 14.3069 -3.86124
rtoes -17.5462
lfemur -60.4217 10.6575 -20.9096
ltibia 80.9697
lfoot -31.1711 -9.29033
ltoes 4.7296
34
root -1.4154 15.7374 -43.5503 22.8711 -6.57664 -6.15442
lowerback 12.8394 1.10165 6.44294
upperback -3.73436 2.66548 0.678094
thorax -11.0679 0.853192 -3.4829
lowerneck -20.9192 -1.16338 -0.816803
upperneck 6.55723 -1.28328 -0.431697
head 5.31434 -0.685481 -0.140469
rclavicle 7.19352e-015 -1.04362e-015
rhumerus -46.8852 12.2068 -94.5903
rradius 80.02
rwrist 1.7496
rhand -17.7248 -9.24836
rfingers 7.12502
rthumb 8.53597 -39.0558
lclavicle 7.19352e-015 -1.04362e-015
lhumerus -52.3545 -8.1094 88.8855
lradius 69.2815
lwrist 4.1731
lhand -26.581 -8.82638
lfingers 7.12502
lthumb -0.0154515 21.1534
rfemur -4.61673 -4.62436 23.7598
rtibia 55.2866
rfoot 13.4998 -5.4192
rtoes -11.7093
lfemur -58.5587 9.87071 -21.5391
ltibia 80.2472
lfoot -31.8757 -9.72304
ltoes 5.30853
35
root -1.44671 15.7622 -43.2536 22.6077 -5.78507 -5.08388
lowerback 13.1358 0.877846 5.45876
upperback -3.58048 2.18434 0.447421
thorax -11.1377 0.682435 -3.08524
lowerneck -20.9377 -1.25439 -0.89388
upperneck 6.26806 -1.39995 -0.305556
head 5.22636 -0.734037 -0.0989118
rclavicle 5.479e-015 -9.19379e-015
rhumerus -47.4228 10.2598 -93.2452
rradius 78.0158
rwrist 1.53153
rhand -18.065 -9.90648
rfingers 7.12502
rthumb 8.20756 -39.7271
lclavicle 5.479e-015 -9.19379e-015
lhumerus -50.983 -8.11541 89.0673
lradius 68.7111
lwrist 3.91149
lhand -26.8399 -9.10833
lfingers 7.12502
lthumb -0.265412 20.8712
rfemur -7.63957 -6.09678 22.9733
rtibia 60.0976
rfoot 12.206 -7.08317
rtoes -6.07193
lfemur -56.6399 9.03482 -22.211
ltibia 79.3932
lfoot -32.5424 -10.1357
ltoes 5.80158
36
root -1.47456 15.7877 -42.9566 22.3955 -5.03165 -4.01602
lowerback 13.4161 0.6619 4.53733
upperback -3.43692 1.71806 0.208337
thorax -11.1961 0.51424 -2.72949
lowerneck -20.9641 -1.33836 -0.980964
upperneck 6.00454 -1.50367 -0.18038
head 5.14812 -0.776794 -0.0548601
rclavicle 3.50358e-015 -9.44227e-015
rhumerus -48.0341 8.29289 -91.8425
rradius 75.9644
rwrist 1.45258
rhand -18.7084 -10.4873
rfingers 7.12502
rthumb 7.58666 -40.3312
lclavicle 3.50358e-015 -9.44227e-015
lhumerus -49.5694 -8.18096 89.2736
lradius 68.2017
lwrist 3.42728
lhand -27.0486 -9.39256
lfingers 7.12502
lthumb -0.467005 20.5867
rfemur -10.8597 -7.55629 22.1777
rtibia 64.7272
rfoot 10.5094 -8.70663
rtoes -1.17202
lfemur -54.6969 8.16533 -22.8799
ltibia 78.43
lfoot -33.1858 -10.5131
ltoes 6.24192
37
root -1.49848 15.8124 -42.659 22.2367 -4.31253 -3.00586
lowerback 13.6738 0.453906 3.73701
upperback -3.30963 1.27965 -0.0249254
thorax -11.2464 0.351208 -2.43723
lowerneck -20.9818 -1.41404 -1.0744
upperneck 5.76872 -1.59346 -0.0617346
head 5.07763 -0.813539 -0.0104986
rclavicle -9.83984e-015 -6.16232e-015
rhumerus -48.764 6.35817 -90.3894
rradius 73.9675
rwrist 1.44895
rhand -19.6017 -10.8415
rfingers 7.12502
rthumb 6.72437 -40.7147
lclavicle -9.83984e-015 -6.16232e-015
lhumerus -48.1573 -8.29185 89.4995
lradius 67.7795
lwrist 2.73193
lhand -27.2093 -9.70837
lfingers 7.12502
lthumb -0.62227 20.2705
rfemur -14.2789 -8.95725 21.4432
rtibia 69.1145
rfoot 8.51322 -10.1305
rtoes 2.76517
lfemur -52.7371 7.28593 -23.4945
ltibia 77.3834
lfoot -33.8114 -10.8847
ltoes 6.79558
38
root -1.51852 15.8336 -42.3617 22.1299 -3.63918 -2.09433
lowerback 13.9017 0.260533 3.08604
upperback -3.19918 0.885581 -0.240277
thorax -11.2867 0.199845 -2.21634
lowerneck -21.004 -1.47566 -1.16068
upperneck 5.57938 -1.66261 0.028026
head 5.02247 -0.842322 0.0254154
rclavicle 3.05631e-015 -1.19271e-015
rhumerus -49.6482 4.51021 -88.8986
rradius 72.1362
rwrist 1.47426
rhand -20.6822 -11.0045
rfingers 7.12502
rthumb 5.68121 -40.9083
lclavicle 3.05631e-015 -1.19271e-015
lhumerus -46.7889 -8.43194 89.7467
lradius 67.4832
lwrist 1.86765
lhand -27.3188 -10.07
lfingers 7.12502
lthumb -0.728007 19.9085
rfemur -17.8986 -10.2222 20.8307
rtibia 73.2159
rfoot 6.2968 -11.3575
rtoes 5.67329
lfemur -50.7921 6.43421 -24.0301
ltibia 76.2937
lfoot -34.4432 -11.2023
ltoes 7.32741
